<?xml version="1.0" encoding="iso-8859-1"?>
<!-- Uploaded to: SVG Repo, www.svgrepo.com, Generator: SVG Repo Mixer Tools -->
<!DOCTYPE svg PUBLIC "-//W3C//DTD SVG 1.1//EN" "http://www.w3.org/Graphics/SVG/1.1/DTD/svg11.dtd">
<svg fill="#000000" version="1.1" id="Capa_1" xmlns="http://www.w3.org/2000/svg" xmlns:xlink="http://www.w3.org/1999/xlink" 
	 width="800px" height="800px" viewBox="0 0 61.952 61.952"
	 xml:space="preserve">
<g>
	<g>
		<path d="M57.127,57.99c-0.016-0.129-0.056-0.269-0.145-0.41c-0.584-0.931-2.93-1.516-6.986-1.745
			c0.171-1.351,0.281-2.813,0.161-3.889c-0.07-0.625-0.823-1.099-1.334-0.551c-1.18,1.265-1.915,2.799-2.651,4.33
			c-0.213-0.001-0.42-0.004-0.64-0.004l-0.87,0.002c0.971-1.384,1.965-2.749,3.184-3.94c0.721-0.707-0.384-1.811-1.105-1.106
			c-1.54,1.509-2.729,3.295-3.957,5.045c-0.277-0.001-0.558-0.003-0.815-0.006c1.337-1.6,2.645-3.231,4.12-4.716
			c0.71-0.716-0.394-1.819-1.104-1.105c-1.786,1.797-3.32,3.844-4.974,5.765c-0.895-0.042-1.66-0.113-2.302-0.229
			c0.763-0.642,1.529-1.277,2.304-1.903c0.025-0.019,0.048-0.023,0.071-0.043c1.021-0.866,2.55-1.728,3.718-2.745
			c0.166-0.108,0.327-0.226,0.496-0.332c0.222-0.138,0.328-0.332,0.357-0.533c0.359-0.443,0.627-0.917,0.741-1.434
			c0.229-1.045-0.896-1.115-1.857-0.966c0.156-0.204,0.294-0.419,0.392-0.653c0.424-1.019-0.757-1.273-1.751-1.28
			c0.38-0.299,0.708-0.632,0.921-1.033c0.46-0.87-0.406-1.251-1.3-1.392c0.396-0.288,0.743-0.61,0.975-1.011
			c0.735-1.275-1.534-1.569-2.438-1.55c-0.029,0.001-0.06,0.005-0.087,0.005c0.828-0.394,1.532-0.888,1.932-1.582
			c0.736-1.274-1.532-1.568-2.437-1.549c-0.027,0.001-0.054,0.004-0.08,0.005c0.827-0.394,1.531-0.888,1.932-1.581
			c0.718-1.243-1.421-1.552-2.366-1.549c0.651-0.384,1.205-0.853,1.524-1.496c0.688-1.383-1.544-1.763-2.433-1.766
			c-0.063,0-0.13,0.008-0.195,0.009c0.859-0.575,1.564-1.232,1.884-1.994c0.624-1.486-1.533-1.963-2.386-1.991
			c-0.195-0.006-0.391,0.013-0.586,0.014c0.859-0.575,1.564-1.232,1.884-1.994c0.476-1.134-0.665-1.679-1.613-1.886
			c0.435-0.356,0.791-0.782,1.012-1.324c0.405-0.993-0.418-1.526-1.263-1.776c0.33-0.298,0.623-0.638,0.821-1.08
			c0.526-1.174-0.595-1.841-1.511-2.129c0.26-0.212,0.499-0.451,0.678-0.754c0.754-1.27-1.158-1.964-1.934-2.092
			c-0.128-0.021-0.259-0.025-0.388-0.043c0.694-0.308,1.302-0.74,1.687-1.435c0.629-1.134-0.618-1.842-1.494-2.125
			c0.552-0.281,1.033-0.656,1.353-1.221c0.515-0.913-0.291-1.528-1.057-1.85c0.294-0.181,0.567-0.391,0.778-0.671
			c0.739-0.978-0.639-1.678-1.477-1.933c0.425-0.208,0.8-0.481,1.083-0.867c0.802-1.094-0.966-1.841-1.693-2.006
			c-3.777-0.858-7.879-0.19-11.749,0.003c-0.33-0.291-0.739-0.514-1.249-0.673c-1.22-1.698-4.292-1.179-5.818-1.04
			c-1.912,0.178-1.652,2.087-1.652,2.087c0.174,7.292-3.993,14.931-5.555,17.274S2.067,28.66,6.754,34.303
			c4.688,5.643,3.472,26.775,3.472,26.775h1.649c-0.347-28.866,0.607-24.778,5.122-21.74c4.513,3.038,7.986,13.889,10.417,19.444
			s18.924,2.17,24.653,1.91C56.893,60.473,57.832,58.778,57.127,57.99z M22.369,4.688c-0.311,0.017-0.62,0.03-0.927,0.04
			c-0.002-0.47-0.005-0.87-0.01-1.232c0.199-0.006,0.399-0.015,0.598-0.023C22.176,3.808,22.283,4.208,22.369,4.688z M29.333,5.961
			c1.494-0.016,3.043-0.018,4.517,0.265c-0.433,0.126-0.889,0.209-1.321,0.289c-0.98,0.183-1.985,0.249-2.957,0.472
			c-0.03,0.007-0.047,0.025-0.075,0.033c-1.924,0.178-3.854,0.532-5.748,0.811C23.72,7.459,23.681,7,23.622,6.347
			c-0.004-0.049-0.009-0.094-0.014-0.143C25.514,6.106,27.42,5.979,29.333,5.961z M29.405,14.013
			c-1.815,0.193-3.632,0.502-5.418,0.761c-0.031-0.736-0.056-1.363-0.076-1.91c1.888-0.25,3.771-0.529,5.67-0.688
			c1.517-0.125,3.091-0.242,4.611-0.014c-0.429,0.18-0.885,0.31-1.318,0.437c-0.981,0.289-1.995,0.438-2.965,0.772
			C29.593,13.482,29.445,13.733,29.405,14.013z M23.189,18.491c-0.307,0.064-0.612,0.121-0.917,0.179
			c-0.088-0.642-0.167-1.276-0.237-1.904c0.336-0.034,0.67-0.075,1.005-0.114C23.077,17.274,23.122,17.889,23.189,18.491z
			 M30.686,19.081c1.581-0.244,3.221-0.48,4.836-0.343c-0.438,0.225-0.906,0.398-1.351,0.567c-1.006,0.381-2.058,0.615-3.048,1.044
			c-0.075,0.032-0.121,0.085-0.178,0.131c-2.048,0.453-4.079,1.1-6.085,1.71c-0.14-0.631-0.263-1.264-0.371-1.904
			C26.551,19.867,28.606,19.402,30.686,19.081z M34.533,22.474c-0.886,0.394-1.81,0.691-2.692,1.089
			c-2.083,0.418-4.153,1.047-6.196,1.65c-0.109-0.379-0.223-0.76-0.322-1.137c1.865-0.525,3.728-1.067,5.618-1.503
			c1.608-0.372,3.279-0.741,4.944-0.753C35.451,22.071,34.978,22.276,34.533,22.474z M25.879,29.43
			c-0.328,0.094-0.655,0.188-0.982,0.276c-0.001-0.001-0.001-0.003-0.002-0.004c-0.256-0.689-0.491-1.39-0.711-2.097
			c0.338-0.087,0.676-0.17,1.014-0.261C25.415,28.027,25.642,28.723,25.879,29.43z M26.956,32.569
			c0.073,0.209,0.148,0.426,0.222,0.64c-0.323,0.092-0.645,0.179-0.966,0.269c-0.214-0.658-0.436-1.316-0.665-1.971
			c0.319-0.083,0.637-0.164,0.955-0.249C26.653,31.693,26.8,32.121,26.956,32.569z M28.268,36.395
			c-0.357,0.099-0.715,0.194-1.071,0.293c-0.149-0.508-0.299-1.017-0.456-1.526c0.34-0.089,0.678-0.178,1.017-0.268
			C27.927,35.383,28.096,35.883,28.268,36.395z M29.256,39.41c-0.403,0.111-0.807,0.223-1.209,0.332
			c-0.131-0.5-0.27-1.006-0.411-1.512c0.381-0.098,0.763-0.194,1.144-0.292C28.938,38.417,29.097,38.909,29.256,39.41z
			 M30.187,42.442c-0.458,0.126-0.917,0.253-1.374,0.379c-0.119-0.504-0.239-1.01-0.366-1.523c0.431-0.11,0.863-0.22,1.295-0.33
			C29.89,41.448,30.038,41.941,30.187,42.442z M34.894,42.986c1.73-0.376,3.525-0.754,5.295-0.831
			c-0.477,0.229-0.989,0.418-1.475,0.604c-1.038,0.395-2.12,0.697-3.148,1.111c-1.206,0.294-2.407,0.636-3.604,1.003
			c-0.098-0.358-0.202-0.733-0.31-1.115C32.728,43.487,33.807,43.222,34.894,42.986z M39.987,47.99
			c-1.036,0.556-2.139,1.008-3.153,1.598c-0.517,0.3-0.543,0.754-0.314,1.07c-0.856,0.514-1.706,1.043-2.548,1.586
			c-0.249-0.665-0.48-1.467-0.728-2.407c0.99-0.389,1.981-0.772,2.985-1.129c1.667-0.596,3.4-1.199,5.143-1.505
			C40.929,47.491,40.445,47.746,39.987,47.99z M35.147,55.559c-1.051,0.865-2.118,1.711-3.226,2.501
			c-0.565-0.415-0.915-1.04-0.949-1.97c-0.001-0.02-0.003-0.042-0.003-0.062c0.96-0.583,1.917-1.174,2.87-1.769
			C34.198,54.8,34.626,55.224,35.147,55.559z M29.764,47.249c0.54-0.161,1.082-0.317,1.621-0.478
			c0.15,0.582,0.292,1.145,0.424,1.672c0.016,0.062,0.03,0.114,0.045,0.176c-0.57,0.238-1.14,0.479-1.708,0.716
			C30.031,48.664,29.904,47.967,29.764,47.249z M22.784,9.707c0.005,0.347,0.012,0.786,0.03,1.42
			c-0.407,0.058-0.81,0.104-1.214,0.15c-0.025-0.511-0.048-1.008-0.065-1.492c0.082,0.023,0.166,0.043,0.265,0.034
			C22.127,9.787,22.455,9.744,22.784,9.707z M22.95,14.913c-0.364,0.047-0.728,0.092-1.089,0.129
			c-0.059-0.651-0.109-1.288-0.152-1.913c0.388-0.042,0.777-0.086,1.165-0.134C22.895,13.544,22.919,14.18,22.95,14.913z
			 M24.642,25.501c-0.329,0.094-0.658,0.185-0.985,0.273c-0.103-0.388-0.19-0.778-0.284-1.169c0.314-0.083,0.63-0.161,0.944-0.248
			C24.418,24.737,24.533,25.12,24.642,25.501z M32.275,50.22c0.271,1.004,0.533,1.867,0.822,2.589
			c-0.756,0.489-1.508,0.978-2.258,1.45c-0.095-0.965-0.238-2.075-0.426-3.301C31.033,50.711,31.653,50.466,32.275,50.22z
			 M39.067,45.313c-1.084,0.458-2.222,0.809-3.286,1.303c-0.344,0.16-0.482,0.4-0.498,0.64c-0.822,0.305-1.64,0.629-2.454,0.963
			c-0.004-0.011-0.006-0.02-0.009-0.031c-0.136-0.538-0.281-1.112-0.436-1.71c0.954-0.275,1.909-0.545,2.873-0.793
			c1.715-0.44,3.496-0.884,5.26-1.029C40.05,44.901,39.544,45.11,39.067,45.313z M30.965,45.179
			c-0.51,0.161-1.016,0.321-1.522,0.481c-0.088-0.418-0.178-0.842-0.274-1.271c0.491-0.126,0.981-0.249,1.472-0.374
			C30.755,44.415,30.864,44.805,30.965,45.179z M23.862,22.491c-0.301,0.088-0.601,0.172-0.901,0.255
			c-0.142-0.7-0.271-1.396-0.387-2.091c0.298-0.054,0.597-0.11,0.894-0.168C23.583,21.161,23.714,21.827,23.862,22.491z
			 M32.906,9.256c-0.933,0.271-1.897,0.411-2.819,0.725c-0.124,0.042-0.221,0.107-0.296,0.186c-1.984,0.151-3.978,0.5-5.939,0.805
			c-0.016-0.599-0.022-1.015-0.027-1.346c0-0.014,0-0.024-0.001-0.038c1.982-0.253,3.958-0.557,5.951-0.723
			c1.442-0.12,2.94-0.229,4.386-0.019C33.753,9.014,33.318,9.136,32.906,9.256z M22.583,6.441c0.062,0.685,0.103,1.156,0.13,1.529
			c-0.347,0.045-0.695,0.092-1.038,0.125c-0.073,0.007-0.128,0.039-0.19,0.062c-0.015-0.664-0.025-1.288-0.031-1.866
			c0.371-0.011,0.742-0.025,1.112-0.042C22.571,6.316,22.579,6.375,22.583,6.441z M47.308,56.78c0.332,0.007,0.65,0.014,0.956,0.022
			c-0.032,0.29-0.064,0.548-0.099,0.729c-0.005,0.031,0.005,0.056,0.003,0.087c-0.424,0.016-0.853,0.033-1.295,0.05
			C47.02,57.374,47.165,57.079,47.308,56.78z M54.588,57.452c-1.249-0.025-2.902,0.028-4.849,0.104
			c0.037-0.22,0.074-0.448,0.11-0.688C52.2,56.997,53.669,57.224,54.588,57.452z M48.514,54.444
			c-0.042,0.298-0.09,0.797-0.142,1.321c-0.186-0.006-0.367-0.012-0.557-0.017C48.038,55.306,48.264,54.868,48.514,54.444z
			 M45.532,56.763c0.045,0,0.086,0.001,0.131,0.001c-0.164,0.326-0.337,0.646-0.515,0.965c-0.125,0.004-0.246,0.009-0.372,0.013
			c-0.523,0.015-1.068,0.059-1.62,0.111c0.262-0.357,0.521-0.72,0.775-1.084L45.532,56.763z M42.043,56.756
			c-0.336,0.459-0.679,0.912-1.038,1.352c-0.442,0.061-0.884,0.122-1.324,0.186c0.486-0.508,0.958-1.028,1.419-1.561
			C41.409,56.742,41.709,56.751,42.043,56.756z M39.151,56.629c-0.639,0.698-1.305,1.368-2.016,1.992
			c-0.78,0.084-1.525,0.138-2.209,0.14l-1.037-0.231c0.969-0.74,1.915-1.51,2.852-2.293C37.417,56.421,38.204,56.549,39.151,56.629z
			 M35.978,54.867c-0.52-0.282-0.932-0.648-1.272-1.142c1.137-0.705,2.277-1.405,3.44-2.071c1.536-0.881,3.135-1.779,4.8-2.387
			c-0.308,0.286-0.643,0.556-0.973,0.817c-0.832,0.586-1.641,1.202-2.436,1.838c-0.214,0.164-0.436,0.317-0.641,0.492
			c-0.028,0.025-0.04,0.052-0.064,0.077C37.875,53.275,36.927,54.071,35.978,54.867z M31.192,42.169
			c-0.147-0.495-0.292-0.982-0.439-1.46c1.178-0.298,2.359-0.59,3.549-0.849c1.729-0.376,3.526-0.754,5.294-0.831
			c-0.476,0.229-0.987,0.418-1.474,0.604c-1.1,0.417-2.25,0.724-3.332,1.179c-0.332,0.14-0.48,0.357-0.519,0.582
			C33.242,41.629,32.214,41.894,31.192,42.169z M30.261,39.135c-0.157-0.495-0.313-0.979-0.468-1.454
			c1.303-0.333,2.607-0.659,3.924-0.944c1.729-0.376,3.525-0.752,5.294-0.831c-0.476,0.229-0.988,0.418-1.474,0.604
			c-1.1,0.417-2.251,0.724-3.333,1.179c-0.33,0.139-0.479,0.356-0.519,0.581C32.541,38.529,31.398,38.825,30.261,39.135z
			 M38.219,32.799c-0.462,0.239-0.959,0.436-1.432,0.627c-1.068,0.431-2.19,0.738-3.24,1.209c-0.274,0.123-0.428,0.312-0.485,0.519
			c-1.267,0.288-2.53,0.621-3.788,0.966c-0.17-0.507-0.338-1.004-0.505-1.489c1.419-0.372,2.84-0.739,4.274-1.053
			C34.732,33.208,36.486,32.84,38.219,32.799z M37.575,28.978c-0.437,0.247-0.911,0.448-1.358,0.642
			c-1.013,0.438-3.112,1.777-4.112,2.264c-1.313,0.31-2.624,0.669-3.923,1.04c-0.08-0.231-0.163-0.468-0.242-0.695
			c-0.147-0.425-0.287-0.83-0.429-1.242c1.697-0.461,3.393-0.927,5.113-1.305C34.235,29.325,35.908,28.973,37.575,28.978z
			 M26.881,29.142c-0.236-0.701-0.461-1.392-0.676-2.07c1.769-0.48,3.537-0.969,5.328-1.364c1.612-0.355,3.287-0.706,4.952-0.702
			c-0.437,0.247-0.91,0.448-1.359,0.641c-1.015,0.44-3.126,1.785-4.122,2.269c-0.046,0.022-0.069,0.057-0.107,0.084
			C29.55,28.35,28.21,28.75,26.881,29.142z M34.831,15.768c-0.43,0.171-0.888,0.295-1.32,0.416
			c-0.975,0.273-1.981,0.417-2.946,0.731c-2.133,0.327-4.26,0.878-6.354,1.352c-0.061-0.568-0.102-1.148-0.134-1.733
			c2.046-0.257,4.088-0.561,6.146-0.73C31.737,15.678,33.311,15.562,34.831,15.768z M29.146,3.161
			c1.448-0.016,2.948-0.018,4.375,0.266c-0.42,0.126-0.861,0.208-1.28,0.289c-0.949,0.184-1.921,0.249-2.864,0.472
			c-0.08,0.019-0.138,0.059-0.2,0.093c-1.923,0.036-3.865,0.218-5.769,0.347c-0.076-0.437-0.168-0.837-0.291-1.196
			C25.125,3.331,27.131,3.182,29.146,3.161z"/>
	</g>
</g>
</svg>