<?xml version="1.0" encoding="iso-8859-1"?>
<!-- Uploaded to: SVG Repo, www.svgrepo.com, Generator: SVG Repo Mixer Tools -->
<svg fill="#000000" height="800px" width="800px" version="1.1" id="Layer_1" xmlns="http://www.w3.org/2000/svg" xmlns:xlink="http://www.w3.org/1999/xlink" 
	 viewBox="0 0 511.998 511.998" xml:space="preserve">
<g>
	<g>
		<path d="M349.216,234.94c4.523-34.953,9.182-71.091,9.182-98.406c0-46.259-19.601-79.053-25.6-88.004V17.067
			c0-4.719-3.814-8.533-8.533-8.533h-45.927C272.339,3.285,264.583,0,255.998,0c-8.576,0-16.333,3.285-22.34,8.533h-45.926
			c-4.71,0-8.533,3.814-8.533,8.533v31.462c-5.99,8.951-25.6,41.745-25.6,88.004c0,27.315,4.668,63.454,9.19,98.406
			c4.053,31.36,7.876,60.979,7.885,80.333c-0.341,6.537-8.542,160.247-8.542,188.194c0,4.719,3.823,8.533,8.533,8.533h68.267
			c4.719,0,8.533-3.814,8.533-8.533c0-50.185-2.97-115.806-5.367-168.542c-1.698-37.547-3.166-69.973-3.166-87.458
			c0-19.797,5.965-35.712,12.271-52.54c1.621-4.335,3.26-8.695,4.796-13.15c1.545,4.454,3.174,8.815,4.804,13.15
			c6.306,16.828,12.262,32.742,12.262,52.54c0,17.485-1.459,49.912-3.166,87.458c-2.389,52.736-5.367,118.357-5.367,168.542
			c0,4.719,3.823,8.533,8.533,8.533h68.267c4.719,0,8.533-3.814,8.533-8.533c0-27.947-8.201-181.658-8.533-187.733
			C341.331,295.919,345.164,266.3,349.216,234.94z M239.256,30.959c0.171-0.862,0.427-1.715,0.734-2.543
			c0.043-0.119,0.068-0.239,0.111-0.358c0.759-1.903,1.86-3.695,3.285-5.282c0.043-0.051,0.06-0.111,0.102-0.162
			c3.123-3.388,7.552-5.547,12.51-5.547c4.958,0,9.395,2.159,12.51,5.547c0.043,0.051,0.068,0.111,0.111,0.162
			c1.425,1.587,2.526,3.379,3.277,5.282c0.051,0.12,0.077,0.239,0.111,0.358c0.307,0.828,0.572,1.681,0.742,2.543
			c0.196,1.033,0.316,2.091,0.316,3.174s-0.119,2.142-0.316,3.174c-0.171,0.862-0.435,1.715-0.742,2.543
			c-0.034,0.119-0.06,0.239-0.111,0.35c-0.751,1.911-1.852,3.703-3.277,5.291c-6.647,7.356-18.586,7.356-25.233,0
			c-1.425-1.587-2.526-3.379-3.285-5.291c-0.043-0.111-0.068-0.23-0.111-0.35c-0.307-0.828-0.563-1.681-0.734-2.543
			c-0.196-1.033-0.324-2.091-0.324-3.174S239.06,31.991,239.256,30.959z M196.266,25.6h26.709c-0.077,0.299-0.102,0.606-0.179,0.905
			c-0.12,0.546-0.222,1.101-0.324,1.664c-0.358,1.963-0.606,3.951-0.606,5.965c0,2.014,0.247,4.002,0.606,5.965
			c0.102,0.563,0.205,1.109,0.324,1.664c0.077,0.299,0.102,0.606,0.179,0.904h-26.709V25.6z M286.36,135.083
			c-9.037,6.067-20.949,9.984-30.362,9.984c-10.632,0-21.495-3.601-30.583-10.146c-3.823-2.748-4.685-8.081-1.937-11.904
			c2.748-3.823,8.073-4.702,11.904-1.946c6.118,4.403,13.636,6.929,20.616,6.929c5.965,0,14.729-2.987,20.847-7.083
			c3.917-2.654,9.225-1.587,11.836,2.321C291.31,127.155,290.268,132.454,286.36,135.083z M289.022,42.667
			c0.085-0.299,0.111-0.606,0.179-0.904c0.128-0.555,0.23-1.101,0.333-1.664c0.358-1.963,0.597-3.951,0.597-5.965
			c0-2.014-0.239-4.002-0.597-5.965c-0.102-0.563-0.205-1.118-0.333-1.664c-0.068-0.299-0.094-0.606-0.179-0.905h26.709v17.067
			H289.022z"/>
	</g>
</g>
</svg>