<?xml version="1.0" encoding="iso-8859-1"?>
<!-- Uploaded to: SVG Repo, www.svgrepo.com, Generator: SVG Repo Mixer Tools -->
<svg fill="#000000" height="800px" width="800px" version="1.1" id="Layer_1" xmlns="http://www.w3.org/2000/svg" xmlns:xlink="http://www.w3.org/1999/xlink" 
	 viewBox="0 0 512.002 512.002" xml:space="preserve">
<g transform="translate(-1 -1)">
	<g>
		<g>
			<path d="M448.926,236.341l-2.79-9.916c-13.141-46.746-40.491-144-52.796-201.609c-0.538-2.534-2.202-4.693-4.523-5.854
				L354.684,1.896c-0.196-0.094-0.41-0.12-0.614-0.196c-0.341-0.145-0.691-0.256-1.067-0.35c-0.503-0.137-1.007-0.213-1.527-0.256
				C351.271,1.085,351.083,1,350.87,1h-0.026c-0.154,0-0.282,0.06-0.427,0.068c-0.546,0.026-1.067,0.137-1.587,0.265
				c-0.333,0.085-0.666,0.137-0.981,0.265c-0.478,0.179-0.913,0.444-1.357,0.717c-0.307,0.188-0.623,0.333-0.905,0.563
				c-0.068,0.051-0.145,0.068-0.213,0.128c-0.358,0.299-0.614,0.683-0.913,1.033c-0.213,0.247-0.461,0.452-0.64,0.717
				c-0.495,0.734-0.887,1.527-1.135,2.364v0.008c-15.821,53.709-53.069,138.94-85.683,138.94S187.132,60.837,171.32,7.128v-0.01
				c-0.247-0.836-0.64-1.63-1.135-2.364c-0.188-0.265-0.427-0.469-0.64-0.717c-0.299-0.35-0.555-0.734-0.922-1.033
				c-0.06-0.06-0.137-0.077-0.205-0.128c-0.29-0.23-0.614-0.393-0.939-0.58c-0.427-0.256-0.845-0.521-1.306-0.691
				c-0.341-0.137-0.7-0.196-1.058-0.282c-0.495-0.119-0.981-0.222-1.493-0.247C163.461,1.068,163.324,1,163.162,1h-0.026
				c-0.222,0-0.427,0.085-0.648,0.102c-0.495,0.043-0.981,0.12-1.468,0.239c-0.375,0.102-0.734,0.213-1.092,0.358
				c-0.205,0.085-0.418,0.102-0.606,0.196l-34.133,17.067c-2.321,1.161-3.985,3.319-4.531,5.854
				C108.361,82.425,81.012,179.679,67.87,226.425l-2.79,9.916c-5.803,20.668-5.931,41.139-0.358,59.204
				c4.267,13.841,11.247,25.481,20.676,34.927l2.039,14.473c1.289,9.131,2.637,18.671,3.977,28.339l16.034,13.005
				c29.722,15.019,58.138,24.312,106.889,24.312c4.719,0,8.533,3.823,8.533,8.533c0,4.71-3.814,8.533-8.533,8.533
				c-52.591,0-83.157-10.172-115.422-26.573c-0.538-0.273-1.05-0.597-1.51-0.981l-2.637-2.133c1.937,14.643,3.738,29.03,5.188,42.3
				l14.054,4.685l9.916,1.681c30.857,5.299,88.303,15.155,133.077,15.155c44.774,0,102.212-9.856,133.077-15.155l9.66-1.638
				l14.421-5.769c1.434-12.979,3.183-26.999,5.077-41.259l-2.637,2.133c-0.469,0.384-0.973,0.708-1.51,0.981
				c-32.265,16.401-62.831,26.573-115.422,26.573c-4.719,0-8.533-3.823-8.533-8.533c0-4.71,3.814-8.533,8.533-8.533
				c48.751,0,77.167-9.293,106.888-24.312l16.034-13.005c1.34-9.668,2.688-19.209,3.977-28.339l2.039-14.473
				c9.429-9.446,16.41-21.086,20.676-34.927C454.848,277.48,454.729,257.009,448.926,236.341z M231.241,299.701
				c0.026,4.873-0.623,9.318-1.937,13.363c-0.009,0.017-0.009,0.034-0.017,0.043c-0.469,1.434-1.126,2.756-1.766,4.096
				c-2.287,4.702-5.623,8.841-10.095,12.339c-0.29,0.222-0.614,0.427-0.905,0.649c-1.997,1.476-4.224,2.816-6.622,4.062
				c-0.597,0.307-1.169,0.623-1.783,0.922c-2.859,1.357-5.905,2.594-9.276,3.644c-8.235,2.551-17.894,3.746-28.416,3.661
				c-3.575-0.034-7.04-0.188-10.445-0.418c-0.427-0.026-0.845-0.051-1.271-0.077c-3.337-0.256-6.588-0.606-9.745-1.05
				c-0.393-0.051-0.777-0.119-1.169-0.179c-6.579-0.981-12.774-2.364-18.517-4.173c-0.179-0.06-0.35-0.119-0.529-0.179
				c-2.611-0.836-5.12-1.775-7.543-2.782c-0.41-0.171-0.819-0.333-1.229-0.512c-2.381-1.032-4.676-2.142-6.869-3.345
				c-0.205-0.111-0.427-0.205-0.631-0.324c-2.321-1.297-4.523-2.697-6.613-4.181c-0.631-0.444-1.229-0.964-1.843-1.434
				c-1.382-1.05-2.731-2.125-4.002-3.26c-8.311-7.432-15.019-17.195-18.978-30.046c-4.608-14.925-4.446-32.06,0.469-49.57
				l2.79-9.907c12.885-45.841,39.407-140.117,52.181-198.647l13.227-6.605c-7.603,28.339-20.702,82.662-20.702,120.277
				c0,31.479,22.741,50.91,46.822,71.484c7.364,6.298,14.822,12.663,21.854,19.533c0.128,0.154,0.222,0.333,0.367,0.469
				c3.422,3.371,6.554,6.673,9.429,9.958c0.034,0.043,0.077,0.085,0.111,0.137c2.662,3.046,5.052,6.076,7.27,9.114
				c0.265,0.358,0.538,0.708,0.802,1.067c2.014,2.825,3.814,5.658,5.487,8.508c0.265,0.452,0.555,0.862,0.811,1.314
				c1.852,3.251,3.499,6.545,4.949,9.916c0.119,0.29,4.275,10.163,4.369,21.973C231.275,299.598,231.241,299.65,231.241,299.701z
				 M151.284,96.625c30.532,59.332,44.339,94.157,45.833,116.787c-3.439-3.012-6.861-5.973-10.206-8.832
				c-21.914-18.731-40.841-34.901-40.841-58.513C146.07,131.569,148.229,114.092,151.284,96.625z M276.775,259.927
				c-1.732,3.115-3.311,6.374-4.796,9.737c-0.12,0.29-0.29,0.563-0.418,0.853c0,0-0.009,0.026-0.017,0.026
				c0,0.017-0.008,0.034-0.017,0.051c-0.009,0.026-0.06,0.145-0.094,0.205c-0.606,1.391-4.011,9.446-5.359,20.335h-18.15
				c-1.442-11.657-5.265-20.147-5.393-20.437c-1.604-3.729-3.379-7.287-5.282-10.718c-0.094-0.162-0.205-0.324-0.299-0.495
				c-1.929-3.43-3.994-6.707-6.17-9.865c-0.188-0.265-0.401-0.521-0.589-0.785c-2.295-3.285-4.719-6.426-7.228-9.446
				c-0.205-0.247-0.427-0.495-0.631-0.734c-2.876-3.43-5.854-6.699-8.909-9.839c-0.017-0.017-0.026-0.026-0.034-0.043
				c5.214-28.57-9.506-69.248-56.806-158.95c2.458-11.238,5.009-21.76,7.305-30.677c15.778,44.194,50.193,123.989,93.116,123.989
				c42.914,0,77.338-79.795,93.116-123.989c2.287,8.917,4.847,19.439,7.305,30.677c-47.3,89.694-62.02,130.381-56.806,158.95
				c-3.098,3.183-6.118,6.502-9.037,9.975c-0.162,0.188-0.341,0.384-0.503,0.58c-2.534,3.046-4.975,6.212-7.296,9.523
				c-0.171,0.247-0.367,0.486-0.538,0.725c-2.091,3.029-4.062,6.178-5.914,9.455C277.159,259.33,276.945,259.628,276.775,259.927z
				 M362.723,96.616c3.046,17.476,5.214,34.953,5.214,49.451c0,23.612-18.927,39.782-40.841,58.513
				c-3.345,2.859-6.767,5.811-10.206,8.832C318.383,190.781,332.19,155.957,362.723,96.616z M432.969,290.519
				c-3.959,12.851-10.667,22.613-18.987,30.046c-1.263,1.135-2.611,2.21-3.994,3.26c-0.623,0.469-1.212,0.99-1.843,1.434
				c-2.099,1.485-4.292,2.884-6.613,4.181c-0.213,0.119-0.435,0.213-0.649,0.333c-2.185,1.195-4.471,2.304-6.852,3.336
				c-0.41,0.179-0.819,0.341-1.229,0.512c-2.423,1.007-4.932,1.946-7.552,2.782c-0.171,0.06-0.341,0.12-0.521,0.179
				c-5.743,1.809-11.938,3.191-18.517,4.173c-0.393,0.06-0.777,0.128-1.169,0.179c-3.157,0.444-6.409,0.794-9.745,1.05
				c-0.427,0.026-0.845,0.051-1.271,0.077c-3.405,0.23-6.878,0.384-10.453,0.418c-2.697,0.026-5.308-0.034-7.834-0.171
				c-7.535-0.418-14.404-1.579-20.582-3.49c-3.362-1.041-6.4-2.287-9.242-3.635c-0.623-0.29-1.203-0.614-1.792-0.922
				c-2.381-1.229-4.582-2.56-6.571-4.028c-0.307-0.23-0.649-0.444-0.947-0.674c-4.463-3.482-7.799-7.595-10.086-12.279
				c-0.657-1.357-1.323-2.705-1.809-4.173c0-0.009-0.008-0.026-0.008-0.043c-1.314-4.045-1.963-8.491-1.946-13.363
				c0-0.085-0.043-0.162-0.043-0.247c0.111-11.904,4.352-21.82,4.446-22.025c1.434-3.337,3.081-6.613,4.924-9.856
				c0.256-0.444,0.546-0.862,0.802-1.297c1.681-2.859,3.482-5.7,5.504-8.525c0.222-0.307,0.461-0.597,0.683-0.905
				c4.659-6.374,10.206-12.732,16.887-19.294c0.145-0.145,0.239-0.324,0.375-0.478c7.031-6.861,14.481-13.235,21.845-19.524
				c24.081-20.574,46.822-40.004,46.822-71.484c0-37.615-13.099-91.938-20.702-120.277l13.227,6.605
				c12.774,58.53,39.287,152.806,52.181,198.647l2.782,9.916C437.415,258.459,437.577,275.594,432.969,290.519z"/>
			<path d="M403.468,461.681l-10.505,1.783c-31.36,5.385-89.728,15.403-135.962,15.403s-104.6-10.018-135.96-15.402l-10.505-1.783
				c-0.444-0.068-0.879-0.179-1.297-0.324l-7.415-2.466c0.99,11.179,1.579,20.958,1.579,28.51c0,4.062,2.876,7.569,6.861,8.363
				c3.516,0.708,86.844,17.237,146.739,17.237c59.887,0,143.223-16.529,146.739-17.237c3.985-0.794,6.861-4.301,6.861-8.363
				c0-7.663,0.614-17.63,1.63-29.005l-6.997,2.79C404.672,461.417,404.074,461.579,403.468,461.681z"/>
		</g>
	</g>
</g>
</svg>